<?xml version="1.0" standalone="no"?><!DOCTYPE svg PUBLIC "-//W3C//DTD SVG 1.1//EN" "http://www.w3.org/Graphics/SVG/1.1/DTD/svg11.dtd"><svg t="1593162623319" class="icon" viewBox="0 0 1024 1024" version="1.1" xmlns="http://www.w3.org/2000/svg" p-id="6949" xmlns:xlink="http://www.w3.org/1999/xlink" width="200" height="200"><defs><style type="text/css"></style></defs><path d="M864 960H160c-52.8 0-96-43.2-96-96V160c0-52.8 43.2-96 96-96h704c52.8 0 96 43.2 96 96v704c0 52.8-43.2 96-96 96zM463.2 357c0-61.4-35.2-90.2-79.4-90.2-51.6 0-80 39.6-80 89v309.6c0 51.6 27.4 91.2 81 91.2 43 0 78.4-28 78.4-91.2v-83.6l121.2 151.4c24.6 29.8 78 33.6 111.6 0 29.2-30.2 29.6-73.6 8-100.8l-98.2-125.6 81-117.4c18.8-27 19-69-11.2-98.2-32.8-31.8-89.2-34.6-122.8 14l-89.6 129.4v-77.6z" p-id="6950" fill="#1296db"></path></svg>