<?xml version="1.0" standalone="no"?><!DOCTYPE svg PUBLIC "-//W3C//DTD SVG 1.1//EN" "http://www.w3.org/Graphics/SVG/1.1/DTD/svg11.dtd"><svg t="1593162644428" class="icon" viewBox="0 0 1152 1024" version="1.1" xmlns="http://www.w3.org/2000/svg" p-id="8804" xmlns:xlink="http://www.w3.org/1999/xlink" width="225" height="200"><defs><style type="text/css"></style></defs><path d="M1151.62008 435.96C1145.28008 314.82 1036.56008 224 915.26008 224h-18.74c-105.64 0-208.5-32.5-295.48-92.48-83.98-57.92-192.08-83.24-306.42-57.4C258.60008 82.24-0.15992 156.48 0.00008 448c0.08 141.9 77.36 265.6 191.98 332.02V928c0 17.68 14.32 32 32 32h32c17.68 0 32-14.32 32-32v-108.52c30.72 7.92 62.8 12.52 96 12.52 10.88 0 21.36-1.46 32-2.36V928c0 17.68 14.32 32 32 32h32c17.68 0 32-14.32 32-32v-118.86c28.48-10.12 55.76-22.78 80.68-39.02C684.14008 710.5 787.72008 672 896.92008 672c50.96 0 32.02-0.62 46.1-1.56l148.82 272.88c5.72 10.46 16.6 16.68 28.1 16.68 2.62 0 5.28-0.32 7.9-1 14.18-3.6 24.1-16.38 24.1-31 0 0 0.28-480.48-0.32-492.04zM927.94008 496c-26.5 0-48-21.5-48-48 0-26.52 21.5-48 48-48s48 21.48 48 48c0 26.5-21.5 48-48 48z m160 306.5l-79.72-146.16c30.24-11.66 57.46-29.2 79.72-51.96v198.12z" p-id="8805" fill="#1296db"></path></svg>